<?xml version="1.0" encoding="utf-8" ?>
<svg baseProfile="full" height="200.0" version="1.1" viewBox="0,0,1144.0,200.0" width="1144.0" xmlns="http://www.w3.org/2000/svg" xmlns:ev="http://www.w3.org/2001/xml-events" xmlns:xlink="http://www.w3.org/1999/xlink"><defs /><path d="M 28.000 56.800 L 308.000 56.800" fill="none" stroke="#000000" stroke-linecap="round" stroke-linejoin="round" stroke-width="20.0" /><path d="M 28.000 100.000 L 274.400 100.000" fill="none" stroke="#000000" stroke-linecap="round" stroke-linejoin="round" stroke-width="20.0" /><path d="M 28.000 143.200 L 156.800 143.200" fill="none" stroke="#000000" stroke-linecap="round" stroke-linejoin="round" stroke-width="20.0" /><path d="M 344.000 56.800 L 344.000 143.200" fill="none" stroke="#000000" stroke-linecap="round" stroke-linejoin="round" stroke-width="20.0" /><path d="M 344.000 56.800 L 450.400 56.800" fill="none" stroke="#000000" stroke-linecap="round" stroke-linejoin="round" stroke-width="20.0" /><path d="M 344.000 100.000 L 624.000 100.000" fill="none" stroke="#000000" stroke-linecap="round" stroke-linejoin="round" stroke-width="20.0" /><path d="M 344.000 143.200 L 450.400 143.200" fill="none" stroke="#000000" stroke-linecap="round" stroke-linejoin="round" stroke-width="20.0" /><path d="M 660.000 143.200 L 660.000 56.800" fill="none" stroke="#000000" stroke-linecap="round" stroke-linejoin="round" stroke-width="20.0" /><path d="M 660.000 56.800 L 800.000 56.800" fill="none" stroke="#000000" stroke-linecap="round" stroke-linejoin="round" stroke-width="20.0" /><path d="M 800.000 56.800 L 800.000 143.200" fill="none" stroke="#000000" stroke-linecap="round" stroke-linejoin="round" stroke-width="20.0" /><path d="M 864.000 56.800 L 1088.000 56.800 L 1088.000 93.088 L 1016.320 93.088 L 1016.320 143.200 L 1088.000 143.200" fill="none" stroke="#000000" stroke-linecap="round" stroke-linejoin="round" stroke-width="20.0" /><path d="M 1043.072 65.440 L 1088.000 65.440 L 1088.000 110.368 L 1043.072 110.368 L 1043.072 65.440" fill="none" stroke="#000000" stroke-linecap="round" stroke-linejoin="round" stroke-width="20.0" /></svg>